# xmcd
#
# Track frame offsets:
#	150
#	13158
#	23957
#	35688
#	48501
#	62019
#	71673
#	83514
#	94164
#	103959
#	114068
#	123942
#
# Disc length: 1785 seconds
#
# Revision: 1
# Processed by: cddbd v1.5.2PL0 Copyright (c) Steve Scherf et al.
# Submitted via: audiograbber 1.83.01
#
DISCID=9a06f70c
DTITLE=B.B. King - Mr. Blues
DYEAR=1963
DGENRE=Blues
TTITLE0=Young Dreamers
TTITLE1=By Myself
TTITLE2=Chains Of Love
TTITLE3=A Mother's Love
TTITLE4=Blues At Midnight
TTITLE5=Sneakin' Around
TTITLE6=On My Road Of Honor
TTITLE7=Tomorrow Night
TTITLE8=My Baby's Comin' Home
TTITLE9=Guess Who
TTITLE10=You Ask Me
TTITLE11=I'm Gonna Sit In 'Til You Give In
EXTD=
EXTT0=
EXTT1=
EXTT2=
EXTT3=
EXTT4=
EXTT5=
EXTT6=
EXTT7=
EXTT8=
EXTT9=
EXTT10=
EXTT11=
PLAYORDER=
